<svg id="visual" viewBox="0 0 1920 1080" width="1920" height="1080" xmlns="http://www.w3.org/2000/svg" xmlns:xlink="http://www.w3.org/1999/xlink" version="1.1"><path d="M0 163L29.2 190C58.3 217 116.7 271 174.8 283.7C233 296.3 291 267.7 349.2 276.7C407.3 285.7 465.7 332.3 523.8 337.7C582 343 640 307 698.2 292.7C756.3 278.3 814.7 285.7 872.8 289.3C931 293 989 293 1047.2 278.5C1105.3 264 1163.7 235 1221.8 247.5C1280 260 1338 314 1396.2 342.8C1454.3 371.7 1512.7 375.3 1570.8 370C1629 364.7 1687 350.3 1745.2 334.2C1803.3 318 1861.7 300 1890.8 291L1920 282L1920 0L1890.8 0C1861.7 0 1803.3 0 1745.2 0C1687 0 1629 0 1570.8 0C1512.7 0 1454.3 0 1396.2 0C1338 0 1280 0 1221.8 0C1163.7 0 1105.3 0 1047.2 0C989 0 931 0 872.8 0C814.7 0 756.3 0 698.2 0C640 0 582 0 523.8 0C465.7 0 407.3 0 349.2 0C291 0 233 0 174.8 0C116.7 0 58.3 0 29.2 0L0 0Z" fill="#343434"></path><path d="M0 303L29.2 339C58.3 375 116.7 447 174.8 450.7C233 454.3 291 389.7 349.2 391.5C407.3 393.3 465.7 461.7 523.8 474.3C582 487 640 444 698.2 436.8C756.3 429.7 814.7 458.3 872.8 469C931 479.7 989 472.3 1047.2 459.7C1105.3 447 1163.7 429 1221.8 448.8C1280 468.7 1338 526.3 1396.2 553.3C1454.3 580.3 1512.7 576.7 1570.8 560.5C1629 544.3 1687 515.7 1745.2 506.7C1803.3 497.7 1861.7 508.3 1890.8 513.7L1920 519L1920 280L1890.8 289C1861.7 298 1803.3 316 1745.2 332.2C1687 348.3 1629 362.7 1570.8 368C1512.7 373.3 1454.3 369.7 1396.2 340.8C1338 312 1280 258 1221.8 245.5C1163.7 233 1105.3 262 1047.2 276.5C989 291 931 291 872.8 287.3C814.7 283.7 756.3 276.3 698.2 290.7C640 305 582 341 523.8 335.7C465.7 330.3 407.3 283.7 349.2 274.7C291 265.7 233 294.3 174.8 281.7C116.7 269 58.3 215 29.2 188L0 161Z" fill="#222222"></path><path d="M0 660L29.2 681.5C58.3 703 116.7 746 174.8 753.2C233 760.3 291 731.7 349.2 722.7C407.3 713.7 465.7 724.3 523.8 731.5C582 738.7 640 742.3 698.2 746C756.3 749.7 814.7 753.3 872.8 758.8C931 764.3 989 771.7 1047.2 764.5C1105.3 757.3 1163.7 735.7 1221.8 744.7C1280 753.7 1338 793.3 1396.2 791.5C1454.3 789.7 1512.7 746.3 1570.8 724.7C1629 703 1687 703 1745.2 731.8C1803.3 760.7 1861.7 818.3 1890.8 847.2L1920 876L1920 517L1890.8 511.7C1861.7 506.3 1803.3 495.7 1745.2 504.7C1687 513.7 1629 542.3 1570.8 558.5C1512.7 574.7 1454.3 578.3 1396.2 551.3C1338 524.3 1280 466.7 1221.8 446.8C1163.7 427 1105.3 445 1047.2 457.7C989 470.3 931 477.7 872.8 467C814.7 456.3 756.3 427.7 698.2 434.8C640 442 582 485 523.8 472.3C465.7 459.7 407.3 391.3 349.2 389.5C291 387.7 233 452.3 174.8 448.7C116.7 445 58.3 373 29.2 337L0 301Z" fill="#111111"></path><path d="M0 930L29.2 926.3C58.3 922.7 116.7 915.3 174.8 924.3C233 933.3 291 958.7 349.2 971.3C407.3 984 465.7 984 523.8 978.5C582 973 640 962 698.2 953C756.3 944 814.7 937 872.8 938.8C931 940.7 989 951.3 1047.2 956.7C1105.3 962 1163.7 962 1221.8 967.5C1280 973 1338 984 1396.2 985.8C1454.3 987.7 1512.7 980.3 1570.8 980.3C1629 980.3 1687 987.7 1745.2 994.8C1803.3 1002 1861.7 1009 1890.8 1012.5L1920 1016L1920 874L1890.8 845.2C1861.7 816.3 1803.3 758.7 1745.2 729.8C1687 701 1629 701 1570.8 722.7C1512.7 744.3 1454.3 787.7 1396.2 789.5C1338 791.3 1280 751.7 1221.8 742.7C1163.7 733.7 1105.3 755.3 1047.2 762.5C989 769.7 931 762.3 872.8 756.8C814.7 751.3 756.3 747.7 698.2 744C640 740.3 582 736.7 523.8 729.5C465.7 722.3 407.3 711.7 349.2 720.7C291 729.7 233 758.3 174.8 751.2C116.7 744 58.3 701 29.2 679.5L0 658Z" fill="#0f0f0f"></path><path d="M0 1081L29.2 1081C58.3 1081 116.7 1081 174.8 1081C233 1081 291 1081 349.2 1081C407.3 1081 465.7 1081 523.8 1081C582 1081 640 1081 698.2 1081C756.3 1081 814.7 1081 872.8 1081C931 1081 989 1081 1047.2 1081C1105.3 1081 1163.7 1081 1221.8 1081C1280 1081 1338 1081 1396.2 1081C1454.3 1081 1512.7 1081 1570.8 1081C1629 1081 1687 1081 1745.2 1081C1803.3 1081 1861.7 1081 1890.8 1081L1920 1081L1920 1014L1890.8 1010.5C1861.7 1007 1803.3 1000 1745.2 992.8C1687 985.7 1629 978.3 1570.8 978.3C1512.7 978.3 1454.3 985.7 1396.2 983.8C1338 982 1280 971 1221.8 965.5C1163.7 960 1105.3 960 1047.2 954.7C989 949.3 931 938.7 872.8 936.8C814.7 935 756.3 942 698.2 951C640 960 582 971 523.8 976.5C465.7 982 407.3 982 349.2 969.3C291 956.7 233 931.3 174.8 922.3C116.7 913.3 58.3 920.7 29.2 924.3L0 928Z" fill="#0d0d0d"></path></svg>