<svg id="visual" viewBox="0 0 1920 1080" width="1920" height="1080" xmlns="http://www.w3.org/2000/svg" xmlns:xlink="http://www.w3.org/1999/xlink" version="1.1"><path d="M0 422L29.2 391.5C58.3 361 116.7 300 174.8 262.2C233 224.3 291 209.7 349.2 204.2C407.3 198.7 465.7 202.3 523.8 224C582 245.7 640 285.3 698.2 285.3C756.3 285.3 814.7 245.7 872.8 267.3C931 289 989 372 1047.2 408C1105.3 444 1163.7 433 1221.8 413.2C1280 393.3 1338 364.7 1396.2 361.2C1454.3 357.7 1512.7 379.3 1570.8 386.5C1629 393.7 1687 386.3 1745.2 352C1803.3 317.7 1861.7 256.3 1890.8 225.7L1920 195L1920 0L1890.8 0C1861.7 0 1803.3 0 1745.2 0C1687 0 1629 0 1570.8 0C1512.7 0 1454.3 0 1396.2 0C1338 0 1280 0 1221.8 0C1163.7 0 1105.3 0 1047.2 0C989 0 931 0 872.8 0C814.7 0 756.3 0 698.2 0C640 0 582 0 523.8 0C465.7 0 407.3 0 349.2 0C291 0 233 0 174.8 0C116.7 0 58.3 0 29.2 0L0 0Z" fill="#dbdbdb"></path><path d="M0 703L29.2 690.3C58.3 677.7 116.7 652.3 174.8 650.5C233 648.7 291 670.3 349.2 648.8C407.3 627.3 465.7 562.7 523.8 548.3C582 534 640 570 698.2 577.2C756.3 584.3 814.7 562.7 872.8 587.8C931 613 989 685 1047.2 704.8C1105.3 724.7 1163.7 692.3 1221.8 652.7C1280 613 1338 566 1396.2 564.2C1454.3 562.3 1512.7 605.7 1570.8 632.7C1629 659.7 1687 670.3 1745.2 648.7C1803.3 627 1861.7 573 1890.8 546L1920 519L1920 193L1890.8 223.7C1861.7 254.3 1803.3 315.7 1745.2 350C1687 384.3 1629 391.7 1570.8 384.5C1512.7 377.3 1454.3 355.7 1396.2 359.2C1338 362.7 1280 391.3 1221.8 411.2C1163.7 431 1105.3 442 1047.2 406C989 370 931 287 872.8 265.3C814.7 243.7 756.3 283.3 698.2 283.3C640 283.3 582 243.7 523.8 222C465.7 200.3 407.3 196.7 349.2 202.2C291 207.7 233 222.3 174.8 260.2C116.7 298 58.3 359 29.2 389.5L0 420Z" fill="#e3e3e3"></path><path d="M0 833L29.2 836.5C58.3 840 116.7 847 174.8 839.7C233 832.3 291 810.7 349.2 789.2C407.3 767.7 465.7 746.3 523.8 760.8C582 775.3 640 825.7 698.2 829.2C756.3 832.7 814.7 789.3 872.8 787.5C931 785.7 989 825.3 1047.2 841.5C1105.3 857.7 1163.7 850.3 1221.8 827C1280 803.7 1338 764.3 1396.2 760.8C1454.3 757.3 1512.7 789.7 1570.8 809.3C1629 829 1687 836 1745.2 834.2C1803.3 832.3 1861.7 821.7 1890.8 816.3L1920 811L1920 517L1890.8 544C1861.7 571 1803.3 625 1745.2 646.7C1687 668.3 1629 657.7 1570.8 630.7C1512.7 603.7 1454.3 560.3 1396.2 562.2C1338 564 1280 611 1221.8 650.7C1163.7 690.3 1105.3 722.7 1047.2 702.8C989 683 931 611 872.8 585.8C814.7 560.7 756.3 582.3 698.2 575.2C640 568 582 532 523.8 546.3C465.7 560.7 407.3 625.3 349.2 646.8C291 668.3 233 646.7 174.8 648.5C116.7 650.3 58.3 675.7 29.2 688.3L0 701Z" fill="#ebebeb"></path><path d="M0 919L29.2 931.7C58.3 944.3 116.7 969.7 174.8 976.8C233 984 291 973 349.2 958.5C407.3 944 465.7 926 523.8 924.2C582 922.3 640 936.7 698.2 934.8C756.3 933 814.7 915 872.8 918.7C931 922.3 989 947.7 1047.2 956.7C1105.3 965.7 1163.7 958.3 1221.8 947.5C1280 936.7 1338 922.3 1396.2 915.2C1454.3 908 1512.7 908 1570.8 918.8C1629 929.7 1687 951.3 1745.2 946C1803.3 940.7 1861.7 908.3 1890.8 892.2L1920 876L1920 809L1890.8 814.3C1861.7 819.7 1803.3 830.3 1745.2 832.2C1687 834 1629 827 1570.8 807.3C1512.7 787.7 1454.3 755.3 1396.2 758.8C1338 762.3 1280 801.7 1221.8 825C1163.7 848.3 1105.3 855.7 1047.2 839.5C989 823.3 931 783.7 872.8 785.5C814.7 787.3 756.3 830.7 698.2 827.2C640 823.7 582 773.3 523.8 758.8C465.7 744.3 407.3 765.7 349.2 787.2C291 808.7 233 830.3 174.8 837.7C116.7 845 58.3 838 29.2 834.5L0 831Z" fill="#eeeeee"></path><path d="M0 1081L29.2 1081C58.3 1081 116.7 1081 174.8 1081C233 1081 291 1081 349.2 1081C407.3 1081 465.7 1081 523.8 1081C582 1081 640 1081 698.2 1081C756.3 1081 814.7 1081 872.8 1081C931 1081 989 1081 1047.2 1081C1105.3 1081 1163.7 1081 1221.8 1081C1280 1081 1338 1081 1396.2 1081C1454.3 1081 1512.7 1081 1570.8 1081C1629 1081 1687 1081 1745.2 1081C1803.3 1081 1861.7 1081 1890.8 1081L1920 1081L1920 874L1890.8 890.2C1861.7 906.3 1803.3 938.7 1745.2 944C1687 949.3 1629 927.7 1570.8 916.8C1512.7 906 1454.3 906 1396.2 913.2C1338 920.3 1280 934.7 1221.8 945.5C1163.7 956.3 1105.3 963.7 1047.2 954.7C989 945.7 931 920.3 872.8 916.7C814.7 913 756.3 931 698.2 932.8C640 934.7 582 920.3 523.8 922.2C465.7 924 407.3 942 349.2 956.5C291 971 233 982 174.8 974.8C116.7 967.7 58.3 942.3 29.2 929.7L0 917Z" fill="#f2f2f2"></path></svg>